<mxfile host="app.diagrams.net" agent="Mozilla/5.0 (Windows NT 10.0; Win64; x64) AppleWebKit/537.36 (KHTML, like Gecko) Chrome/137.0.0.0 Safari/537.36 Edg/137.0.0.0" version="27.1.4">
  <diagram name="Page-1" id="c4acf3e9-155e-7222-9cf6-157b1a14988f">
    <mxGraphModel dx="1418" dy="794" grid="1" gridSize="10" guides="1" tooltips="1" connect="1" arrows="1" fold="1" page="1" pageScale="1" pageWidth="850" pageHeight="1100" background="none" math="0" shadow="0">
      <root>
        <mxCell id="0" />
        <mxCell id="1" parent="0" />
        <mxCell id="17acba5748e5396b-1" value="Document Creation System" style="shape=umlFrame;whiteSpace=wrap;html=1;rounded=0;shadow=0;comic=0;labelBackgroundColor=none;strokeWidth=1;fontFamily=Verdana;fontSize=10;align=center;width=170;height=20;" parent="1" vertex="1">
          <mxGeometry x="20" y="12" width="810" height="688" as="geometry" />
        </mxCell>
        <mxCell id="5d2195bd80daf111-38" style="edgeStyle=orthogonalEdgeStyle;rounded=0;html=1;dashed=1;labelBackgroundColor=none;startFill=0;endArrow=open;endFill=0;endSize=10;fontFamily=Verdana;fontSize=10;" parent="1" edge="1">
          <mxGeometry relative="1" as="geometry">
            <Array as="points">
              <mxPoint x="590" y="721" />
            </Array>
            <mxPoint x="650" y="721.0588235294117" as="sourcePoint" />
          </mxGeometry>
        </mxCell>
        <mxCell id="5d2195bd80daf111-40" style="edgeStyle=orthogonalEdgeStyle;rounded=0;html=1;dashed=1;labelBackgroundColor=none;startFill=0;endArrow=open;endFill=0;endSize=10;fontFamily=Verdana;fontSize=10;" parent="1" edge="1">
          <mxGeometry relative="1" as="geometry">
            <Array as="points" />
            <mxPoint x="730" y="814" as="sourcePoint" />
          </mxGeometry>
        </mxCell>
        <mxCell id="17acba5748e5396b-20" value="&lt;i style=&quot;font-family: Helvetica; font-size: 12px;&quot;&gt;&amp;lt;&amp;lt;Interface&amp;gt;&amp;gt;&lt;/i&gt;&lt;br style=&quot;font-family: Helvetica; font-size: 12px;&quot;&gt;&lt;b style=&quot;font-family: Helvetica; font-size: 12px;&quot;&gt;DocumentFactory&lt;/b&gt;" style="swimlane;html=1;fontStyle=0;childLayout=stackLayout;horizontal=1;startSize=40;fillColor=none;horizontalStack=0;resizeParent=1;resizeLast=0;collapsible=1;marginBottom=0;swimlaneFillColor=#ffffff;rounded=0;shadow=0;comic=0;labelBackgroundColor=none;strokeWidth=1;fontFamily=Verdana;fontSize=10;align=center;" parent="1" vertex="1">
          <mxGeometry x="350" y="120" width="160" height="118" as="geometry" />
        </mxCell>
        <mxCell id="17acba5748e5396b-21" value="CreateDocument()" style="text;html=1;strokeColor=none;fillColor=none;align=center;verticalAlign=top;spacingLeft=4;spacingRight=4;whiteSpace=wrap;overflow=hidden;rotatable=0;points=[[0,0.5],[1,0.5]];portConstraint=eastwest;" parent="17acba5748e5396b-20" vertex="1">
          <mxGeometry y="40" width="160" height="26" as="geometry" />
        </mxCell>
        <mxCell id="17acba5748e5396b-24" value="CreateText()" style="text;html=1;strokeColor=none;fillColor=none;align=center;verticalAlign=top;spacingLeft=4;spacingRight=4;whiteSpace=wrap;overflow=hidden;rotatable=0;points=[[0,0.5],[1,0.5]];portConstraint=eastwest;" parent="17acba5748e5396b-20" vertex="1">
          <mxGeometry y="66" width="160" height="26" as="geometry" />
        </mxCell>
        <mxCell id="17acba5748e5396b-26" value="CreateImage()" style="text;html=1;strokeColor=none;fillColor=none;align=center;verticalAlign=top;spacingLeft=4;spacingRight=4;whiteSpace=wrap;overflow=hidden;rotatable=0;points=[[0,0.5],[1,0.5]];portConstraint=eastwest;" parent="17acba5748e5396b-20" vertex="1">
          <mxGeometry y="92" width="160" height="26" as="geometry" />
        </mxCell>
        <mxCell id="5d2195bd80daf111-39" style="edgeStyle=orthogonalEdgeStyle;rounded=0;html=1;dashed=1;labelBackgroundColor=none;startFill=0;endArrow=open;endFill=0;endSize=10;fontFamily=Verdana;fontSize=10;" parent="1" edge="1">
          <mxGeometry relative="1" as="geometry">
            <mxPoint x="730" y="948" as="sourcePoint" />
          </mxGeometry>
        </mxCell>
        <mxCell id="5d2195bd80daf111-41" style="edgeStyle=orthogonalEdgeStyle;rounded=0;html=1;dashed=1;labelBackgroundColor=none;startFill=0;endArrow=open;endFill=0;endSize=10;fontFamily=Verdana;fontSize=10;" parent="1" edge="1">
          <mxGeometry relative="1" as="geometry">
            <Array as="points" />
            <mxPoint x="730" y="602.9999999999998" as="sourcePoint" />
          </mxGeometry>
        </mxCell>
        <mxCell id="5d2195bd80daf111-36" style="edgeStyle=orthogonalEdgeStyle;rounded=0;html=1;dashed=1;labelBackgroundColor=none;startFill=0;endArrow=open;endFill=0;endSize=10;fontFamily=Verdana;fontSize=10;" parent="1" edge="1">
          <mxGeometry relative="1" as="geometry">
            <Array as="points">
              <mxPoint x="550" y="520" />
            </Array>
            <mxPoint x="550.0588235294117" y="823" as="sourcePoint" />
          </mxGeometry>
        </mxCell>
        <mxCell id="5d2195bd80daf111-26" style="edgeStyle=orthogonalEdgeStyle;rounded=0;html=1;dashed=1;labelBackgroundColor=none;startFill=0;endArrow=open;endFill=0;endSize=10;fontFamily=Verdana;fontSize=10;" parent="1" edge="1">
          <mxGeometry relative="1" as="geometry">
            <Array as="points" />
            <mxPoint x="685" y="300.0000000000002" as="targetPoint" />
          </mxGeometry>
        </mxCell>
        <mxCell id="5d2195bd80daf111-37" style="edgeStyle=orthogonalEdgeStyle;rounded=0;html=1;dashed=1;labelBackgroundColor=none;startFill=0;endArrow=open;endFill=0;endSize=10;fontFamily=Verdana;fontSize=10;" parent="1" edge="1">
          <mxGeometry relative="1" as="geometry">
            <Array as="points">
              <mxPoint x="570" y="590" />
            </Array>
            <mxPoint x="650" y="590.0000000000002" as="sourcePoint" />
          </mxGeometry>
        </mxCell>
        <mxCell id="TaihLs68Lln45VLy-CV8-79" style="edgeStyle=orthogonalEdgeStyle;rounded=0;orthogonalLoop=1;jettySize=auto;html=1;entryX=0.5;entryY=0;entryDx=0;entryDy=0;strokeWidth=2;dashed=1;endSize=6;endArrow=none;endFill=0;startFill=0;startArrow=block;startSize=12;" parent="1" source="TaihLs68Lln45VLy-CV8-3" target="TaihLs68Lln45VLy-CV8-38" edge="1">
          <mxGeometry relative="1" as="geometry" />
        </mxCell>
        <mxCell id="TaihLs68Lln45VLy-CV8-80" style="edgeStyle=orthogonalEdgeStyle;rounded=0;orthogonalLoop=1;jettySize=auto;html=1;entryX=0.5;entryY=0;entryDx=0;entryDy=0;dashed=1;strokeWidth=2;endArrow=none;endFill=0;endSize=6;startArrow=block;startFill=0;startSize=12;" parent="1" source="TaihLs68Lln45VLy-CV8-3" target="TaihLs68Lln45VLy-CV8-34" edge="1">
          <mxGeometry relative="1" as="geometry" />
        </mxCell>
        <mxCell id="TaihLs68Lln45VLy-CV8-3" value="&lt;i style=&quot;font-family: Helvetica; font-size: 12px;&quot;&gt;&amp;lt;&amp;lt;Interface&amp;gt;&amp;gt;&lt;/i&gt;&lt;br style=&quot;font-family: Helvetica; font-size: 12px;&quot;&gt;&lt;b style=&quot;font-family: Helvetica; font-size: 12px;&quot;&gt;AbstractDocument&lt;/b&gt;" style="swimlane;html=1;fontStyle=0;childLayout=stackLayout;horizontal=1;startSize=40;fillColor=none;horizontalStack=0;resizeParent=1;resizeLast=0;collapsible=1;marginBottom=0;swimlaneFillColor=#ffffff;rounded=0;shadow=0;comic=0;labelBackgroundColor=none;strokeWidth=1;fontFamily=Verdana;fontSize=10;align=center;" parent="1" vertex="1">
          <mxGeometry x="150" y="330" width="130" height="118" as="geometry" />
        </mxCell>
        <mxCell id="TaihLs68Lln45VLy-CV8-5" value="Save()" style="text;html=1;strokeColor=none;fillColor=none;align=center;verticalAlign=top;spacingLeft=4;spacingRight=4;whiteSpace=wrap;overflow=hidden;rotatable=0;points=[[0,0.5],[1,0.5]];portConstraint=eastwest;" parent="TaihLs68Lln45VLy-CV8-3" vertex="1">
          <mxGeometry y="40" width="130" height="26" as="geometry" />
        </mxCell>
        <mxCell id="TaihLs68Lln45VLy-CV8-6" value="AddContent()" style="text;html=1;strokeColor=none;fillColor=none;align=center;verticalAlign=top;spacingLeft=4;spacingRight=4;whiteSpace=wrap;overflow=hidden;rotatable=0;points=[[0,0.5],[1,0.5]];portConstraint=eastwest;" parent="TaihLs68Lln45VLy-CV8-3" vertex="1">
          <mxGeometry y="66" width="130" height="26" as="geometry" />
        </mxCell>
        <mxCell id="GaqhjHV3RiaPSJneHQQe-1" value="View()" style="text;html=1;strokeColor=none;fillColor=none;align=center;verticalAlign=top;spacingLeft=4;spacingRight=4;whiteSpace=wrap;overflow=hidden;rotatable=0;points=[[0,0.5],[1,0.5]];portConstraint=eastwest;" parent="TaihLs68Lln45VLy-CV8-3" vertex="1">
          <mxGeometry y="92" width="130" height="26" as="geometry" />
        </mxCell>
        <mxCell id="TaihLs68Lln45VLy-CV8-88" style="edgeStyle=orthogonalEdgeStyle;rounded=0;orthogonalLoop=1;jettySize=auto;html=1;entryX=0.5;entryY=0;entryDx=0;entryDy=0;endArrow=none;endFill=0;strokeWidth=2;endSize=6;dashed=1;startFill=0;startArrow=block;startSize=12;" parent="1" source="TaihLs68Lln45VLy-CV8-17" target="TaihLs68Lln45VLy-CV8-58" edge="1">
          <mxGeometry relative="1" as="geometry" />
        </mxCell>
        <mxCell id="TaihLs68Lln45VLy-CV8-89" style="edgeStyle=orthogonalEdgeStyle;rounded=0;orthogonalLoop=1;jettySize=auto;html=1;entryX=0.5;entryY=0;entryDx=0;entryDy=0;endArrow=none;endFill=0;strokeWidth=2;endSize=6;dashed=1;startSize=12;startFill=0;startArrow=block;" parent="1" source="TaihLs68Lln45VLy-CV8-17" target="TaihLs68Lln45VLy-CV8-54" edge="1">
          <mxGeometry relative="1" as="geometry" />
        </mxCell>
        <mxCell id="TaihLs68Lln45VLy-CV8-17" value="&lt;i style=&quot;font-family: Helvetica; font-size: 12px;&quot;&gt;&amp;lt;&amp;lt;Interface&amp;gt;&amp;gt;&lt;/i&gt;&lt;br style=&quot;font-family: Helvetica; font-size: 12px;&quot;&gt;&lt;b style=&quot;font-family: Helvetica; font-size: 12px;&quot;&gt;AbstractImage&lt;/b&gt;" style="swimlane;html=1;fontStyle=0;childLayout=stackLayout;horizontal=1;startSize=40;fillColor=none;horizontalStack=0;resizeParent=1;resizeLast=0;collapsible=1;marginBottom=0;swimlaneFillColor=#ffffff;rounded=0;shadow=0;comic=0;labelBackgroundColor=none;strokeWidth=1;fontFamily=Verdana;fontSize=10;align=center;" parent="1" vertex="1">
          <mxGeometry x="370" y="330" width="130" height="66" as="geometry" />
        </mxCell>
        <mxCell id="TaihLs68Lln45VLy-CV8-19" value="Resize()" style="text;html=1;strokeColor=none;fillColor=none;align=center;verticalAlign=top;spacingLeft=4;spacingRight=4;whiteSpace=wrap;overflow=hidden;rotatable=0;points=[[0,0.5],[1,0.5]];portConstraint=eastwest;" parent="TaihLs68Lln45VLy-CV8-17" vertex="1">
          <mxGeometry y="40" width="130" height="26" as="geometry" />
        </mxCell>
        <mxCell id="TaihLs68Lln45VLy-CV8-86" style="edgeStyle=orthogonalEdgeStyle;rounded=0;orthogonalLoop=1;jettySize=auto;html=1;entryX=0.5;entryY=0;entryDx=0;entryDy=0;strokeWidth=2;endArrow=none;endFill=0;endSize=6;dashed=1;startFill=0;startArrow=block;startSize=12;" parent="1" source="TaihLs68Lln45VLy-CV8-27" target="TaihLs68Lln45VLy-CV8-50" edge="1">
          <mxGeometry relative="1" as="geometry" />
        </mxCell>
        <mxCell id="TaihLs68Lln45VLy-CV8-87" style="edgeStyle=orthogonalEdgeStyle;rounded=0;orthogonalLoop=1;jettySize=auto;html=1;entryX=0.5;entryY=0;entryDx=0;entryDy=0;strokeWidth=2;dashed=1;endSize=6;endArrow=none;endFill=0;startSize=12;startFill=0;startArrow=block;" parent="1" source="TaihLs68Lln45VLy-CV8-27" target="TaihLs68Lln45VLy-CV8-46" edge="1">
          <mxGeometry relative="1" as="geometry" />
        </mxCell>
        <mxCell id="TaihLs68Lln45VLy-CV8-27" value="&lt;i style=&quot;font-family: Helvetica; font-size: 12px;&quot;&gt;&amp;lt;&amp;lt;Interface&amp;gt;&amp;gt;&lt;/i&gt;&lt;br style=&quot;font-family: Helvetica; font-size: 12px;&quot;&gt;&lt;b style=&quot;font-family: Helvetica; font-size: 12px;&quot;&gt;AbstractText&lt;/b&gt;" style="swimlane;html=1;fontStyle=0;childLayout=stackLayout;horizontal=1;startSize=40;fillColor=none;horizontalStack=0;resizeParent=1;resizeLast=0;collapsible=1;marginBottom=0;swimlaneFillColor=#ffffff;rounded=0;shadow=0;comic=0;labelBackgroundColor=none;strokeWidth=1;fontFamily=Verdana;fontSize=10;align=center;" parent="1" vertex="1">
          <mxGeometry x="610" y="330" width="130" height="66" as="geometry" />
        </mxCell>
        <mxCell id="TaihLs68Lln45VLy-CV8-29" value="Modify()" style="text;html=1;strokeColor=none;fillColor=none;align=center;verticalAlign=top;spacingLeft=4;spacingRight=4;whiteSpace=wrap;overflow=hidden;rotatable=0;points=[[0,0.5],[1,0.5]];portConstraint=eastwest;" parent="TaihLs68Lln45VLy-CV8-27" vertex="1">
          <mxGeometry y="40" width="130" height="26" as="geometry" />
        </mxCell>
        <mxCell id="TaihLs68Lln45VLy-CV8-98" style="edgeStyle=orthogonalEdgeStyle;rounded=0;orthogonalLoop=1;jettySize=auto;html=1;entryX=0.5;entryY=0;entryDx=0;entryDy=0;endArrow=none;startFill=0;startArrow=diamond;startSize=12;" parent="1" source="TaihLs68Lln45VLy-CV8-31" target="TaihLs68Lln45VLy-CV8-27" edge="1">
          <mxGeometry relative="1" as="geometry" />
        </mxCell>
        <mxCell id="TaihLs68Lln45VLy-CV8-99" style="edgeStyle=orthogonalEdgeStyle;rounded=0;orthogonalLoop=1;jettySize=auto;html=1;entryX=0.5;entryY=0;entryDx=0;entryDy=0;endArrow=none;startFill=0;startArrow=diamond;startSize=12;" parent="1" source="TaihLs68Lln45VLy-CV8-31" target="TaihLs68Lln45VLy-CV8-17" edge="1">
          <mxGeometry relative="1" as="geometry">
            <Array as="points">
              <mxPoint x="675" y="310" />
              <mxPoint x="435" y="310" />
            </Array>
          </mxGeometry>
        </mxCell>
        <mxCell id="TaihLs68Lln45VLy-CV8-100" style="edgeStyle=orthogonalEdgeStyle;rounded=0;orthogonalLoop=1;jettySize=auto;html=1;entryX=0.5;entryY=0;entryDx=0;entryDy=0;endArrow=none;startFill=0;startArrow=diamond;endSize=6;startSize=12;" parent="1" source="TaihLs68Lln45VLy-CV8-31" target="TaihLs68Lln45VLy-CV8-3" edge="1">
          <mxGeometry relative="1" as="geometry">
            <Array as="points">
              <mxPoint x="675" y="310" />
              <mxPoint x="215" y="310" />
            </Array>
          </mxGeometry>
        </mxCell>
        <mxCell id="TaihLs68Lln45VLy-CV8-101" style="edgeStyle=orthogonalEdgeStyle;rounded=0;orthogonalLoop=1;jettySize=auto;html=1;entryX=1;entryY=0.5;entryDx=0;entryDy=0;endArrow=none;startFill=0;startArrow=diamond;startSize=12;" parent="1" source="TaihLs68Lln45VLy-CV8-31" target="17acba5748e5396b-21" edge="1">
          <mxGeometry relative="1" as="geometry">
            <Array as="points">
              <mxPoint x="675" y="180" />
              <mxPoint x="510" y="180" />
            </Array>
          </mxGeometry>
        </mxCell>
        <mxCell id="TaihLs68Lln45VLy-CV8-31" value="&lt;font style=&quot;font-size: 14px;&quot;&gt;Client&lt;/font&gt;" style="html=1;rounded=0;shadow=0;comic=0;labelBackgroundColor=none;strokeWidth=1;fontFamily=Verdana;fontSize=10;align=center;" parent="1" vertex="1">
          <mxGeometry x="630" y="120" width="90" height="30" as="geometry" />
        </mxCell>
        <mxCell id="TaihLs68Lln45VLy-CV8-34" value="&lt;i style=&quot;font-family: Helvetica; font-size: 12px;&quot;&gt;&amp;lt;&amp;lt;&lt;/i&gt;&lt;i style=&quot;font-family: Helvetica; font-size: 12px;&quot;&gt;Product&lt;/i&gt;&lt;i style=&quot;font-family: Helvetica; font-size: 12px;&quot;&gt;&amp;gt;&amp;gt;&lt;/i&gt;&lt;br style=&quot;font-family: Helvetica; font-size: 12px;&quot;&gt;&lt;b style=&quot;font-family: Helvetica; font-size: 12px;&quot;&gt;WordDocument&lt;/b&gt;" style="swimlane;html=1;fontStyle=0;childLayout=stackLayout;horizontal=1;startSize=40;fillColor=none;horizontalStack=0;resizeParent=1;resizeLast=0;collapsible=1;marginBottom=0;swimlaneFillColor=#ffffff;rounded=0;shadow=0;comic=0;labelBackgroundColor=none;strokeWidth=1;fontFamily=Verdana;fontSize=10;align=center;" parent="1" vertex="1">
          <mxGeometry x="220" y="500" width="100" height="118" as="geometry" />
        </mxCell>
        <mxCell id="TaihLs68Lln45VLy-CV8-36" value="Save()" style="text;html=1;strokeColor=none;fillColor=none;align=center;verticalAlign=top;spacingLeft=4;spacingRight=4;whiteSpace=wrap;overflow=hidden;rotatable=0;points=[[0,0.5],[1,0.5]];portConstraint=eastwest;" parent="TaihLs68Lln45VLy-CV8-34" vertex="1">
          <mxGeometry y="40" width="100" height="26" as="geometry" />
        </mxCell>
        <mxCell id="TaihLs68Lln45VLy-CV8-37" value="AddContent()" style="text;html=1;strokeColor=none;fillColor=none;align=center;verticalAlign=top;spacingLeft=4;spacingRight=4;whiteSpace=wrap;overflow=hidden;rotatable=0;points=[[0,0.5],[1,0.5]];portConstraint=eastwest;" parent="TaihLs68Lln45VLy-CV8-34" vertex="1">
          <mxGeometry y="66" width="100" height="26" as="geometry" />
        </mxCell>
        <mxCell id="GaqhjHV3RiaPSJneHQQe-3" value="View()" style="text;html=1;strokeColor=none;fillColor=none;align=center;verticalAlign=top;spacingLeft=4;spacingRight=4;whiteSpace=wrap;overflow=hidden;rotatable=0;points=[[0,0.5],[1,0.5]];portConstraint=eastwest;" parent="TaihLs68Lln45VLy-CV8-34" vertex="1">
          <mxGeometry y="92" width="100" height="26" as="geometry" />
        </mxCell>
        <mxCell id="TaihLs68Lln45VLy-CV8-91" style="edgeStyle=orthogonalEdgeStyle;rounded=0;orthogonalLoop=1;jettySize=auto;html=1;entryX=0;entryY=0.5;entryDx=0;entryDy=0;startArrow=open;startFill=0;endArrow=none;dashed=1;strokeWidth=2;endSize=6;startSize=12;" parent="1" source="TaihLs68Lln45VLy-CV8-38" target="TaihLs68Lln45VLy-CV8-72" edge="1">
          <mxGeometry relative="1" as="geometry">
            <Array as="points">
              <mxPoint x="160" y="650" />
              <mxPoint x="60" y="650" />
              <mxPoint x="60" y="233" />
            </Array>
          </mxGeometry>
        </mxCell>
        <mxCell id="TaihLs68Lln45VLy-CV8-38" value="&lt;i style=&quot;font-family: Helvetica; font-size: 12px;&quot;&gt;&amp;lt;&amp;lt;Product&amp;gt;&amp;gt;&lt;/i&gt;&lt;br style=&quot;font-family: Helvetica; font-size: 12px;&quot;&gt;&lt;b style=&quot;font-family: Helvetica; font-size: 12px;&quot;&gt;PDFDocument&lt;/b&gt;" style="swimlane;html=1;fontStyle=0;childLayout=stackLayout;horizontal=1;startSize=40;fillColor=none;horizontalStack=0;resizeParent=1;resizeLast=0;collapsible=1;marginBottom=0;swimlaneFillColor=#ffffff;rounded=0;shadow=0;comic=0;labelBackgroundColor=none;strokeWidth=1;fontFamily=Verdana;fontSize=10;align=center;" parent="1" vertex="1">
          <mxGeometry x="110" y="500" width="100" height="120" as="geometry" />
        </mxCell>
        <mxCell id="TaihLs68Lln45VLy-CV8-40" value="Save()" style="text;html=1;strokeColor=none;fillColor=none;align=center;verticalAlign=top;spacingLeft=4;spacingRight=4;whiteSpace=wrap;overflow=hidden;rotatable=0;points=[[0,0.5],[1,0.5]];portConstraint=eastwest;" parent="TaihLs68Lln45VLy-CV8-38" vertex="1">
          <mxGeometry y="40" width="100" height="26" as="geometry" />
        </mxCell>
        <mxCell id="TaihLs68Lln45VLy-CV8-41" value="AddContent()" style="text;html=1;strokeColor=none;fillColor=none;align=center;verticalAlign=top;spacingLeft=4;spacingRight=4;whiteSpace=wrap;overflow=hidden;rotatable=0;points=[[0,0.5],[1,0.5]];portConstraint=eastwest;" parent="TaihLs68Lln45VLy-CV8-38" vertex="1">
          <mxGeometry y="66" width="100" height="26" as="geometry" />
        </mxCell>
        <mxCell id="GaqhjHV3RiaPSJneHQQe-2" value="View()" style="text;html=1;strokeColor=none;fillColor=none;align=center;verticalAlign=top;spacingLeft=4;spacingRight=4;whiteSpace=wrap;overflow=hidden;rotatable=0;points=[[0,0.5],[1,0.5]];portConstraint=eastwest;" parent="TaihLs68Lln45VLy-CV8-38" vertex="1">
          <mxGeometry y="92" width="100" height="26" as="geometry" />
        </mxCell>
        <mxCell id="TaihLs68Lln45VLy-CV8-46" value="&lt;i style=&quot;font-family: Helvetica; font-size: 12px;&quot;&gt;&amp;lt;&amp;lt;&lt;/i&gt;&lt;i style=&quot;font-family: Helvetica; font-size: 12px;&quot;&gt;Product&lt;/i&gt;&lt;i style=&quot;font-family: Helvetica; font-size: 12px;&quot;&gt;&amp;gt;&amp;gt;&lt;/i&gt;&lt;br style=&quot;font-family: Helvetica; font-size: 12px;&quot;&gt;&lt;b style=&quot;font-family: Helvetica; font-size: 12px;&quot;&gt;WordText&lt;/b&gt;" style="swimlane;html=1;fontStyle=0;childLayout=stackLayout;horizontal=1;startSize=40;fillColor=none;horizontalStack=0;resizeParent=1;resizeLast=0;collapsible=1;marginBottom=0;swimlaneFillColor=#ffffff;rounded=0;shadow=0;comic=0;labelBackgroundColor=none;strokeWidth=1;fontFamily=Verdana;fontSize=10;align=center;" parent="1" vertex="1">
          <mxGeometry x="680" y="500" width="110" height="66" as="geometry" />
        </mxCell>
        <mxCell id="TaihLs68Lln45VLy-CV8-48" value="Modify()" style="text;html=1;strokeColor=none;fillColor=none;align=center;verticalAlign=top;spacingLeft=4;spacingRight=4;whiteSpace=wrap;overflow=hidden;rotatable=0;points=[[0,0.5],[1,0.5]];portConstraint=eastwest;" parent="TaihLs68Lln45VLy-CV8-46" vertex="1">
          <mxGeometry y="40" width="110" height="26" as="geometry" />
        </mxCell>
        <mxCell id="TaihLs68Lln45VLy-CV8-50" value="&lt;i style=&quot;font-family: Helvetica; font-size: 12px;&quot;&gt;&amp;lt;&amp;lt;&lt;/i&gt;&lt;i style=&quot;font-family: Helvetica; font-size: 12px;&quot;&gt;Product&lt;/i&gt;&lt;i style=&quot;font-family: Helvetica; font-size: 12px;&quot;&gt;&amp;gt;&amp;gt;&lt;/i&gt;&lt;br style=&quot;font-family: Helvetica; font-size: 12px;&quot;&gt;&lt;b style=&quot;font-family: Helvetica; font-size: 12px;&quot;&gt;PDFText&lt;/b&gt;" style="swimlane;html=1;fontStyle=0;childLayout=stackLayout;horizontal=1;startSize=40;fillColor=none;horizontalStack=0;resizeParent=1;resizeLast=0;collapsible=1;marginBottom=0;swimlaneFillColor=#ffffff;rounded=0;shadow=0;comic=0;labelBackgroundColor=none;strokeWidth=1;fontFamily=Verdana;fontSize=10;align=center;" parent="1" vertex="1">
          <mxGeometry x="560" y="500" width="110" height="66" as="geometry" />
        </mxCell>
        <mxCell id="TaihLs68Lln45VLy-CV8-52" value="Modify()" style="text;html=1;strokeColor=none;fillColor=none;align=center;verticalAlign=top;spacingLeft=4;spacingRight=4;whiteSpace=wrap;overflow=hidden;rotatable=0;points=[[0,0.5],[1,0.5]];portConstraint=eastwest;" parent="TaihLs68Lln45VLy-CV8-50" vertex="1">
          <mxGeometry y="40" width="110" height="26" as="geometry" />
        </mxCell>
        <mxCell id="TaihLs68Lln45VLy-CV8-54" value="&lt;i style=&quot;font-family: Helvetica; font-size: 12px;&quot;&gt;&amp;lt;&amp;lt;&lt;/i&gt;&lt;i style=&quot;font-family: Helvetica; font-size: 12px;&quot;&gt;Product&lt;/i&gt;&lt;i style=&quot;font-family: Helvetica; font-size: 12px;&quot;&gt;&amp;gt;&amp;gt;&lt;/i&gt;&lt;br style=&quot;font-family: Helvetica; font-size: 12px;&quot;&gt;&lt;b style=&quot;font-family: Helvetica; font-size: 12px;&quot;&gt;WordImage&lt;/b&gt;" style="swimlane;html=1;fontStyle=0;childLayout=stackLayout;horizontal=1;startSize=40;fillColor=none;horizontalStack=0;resizeParent=1;resizeLast=0;collapsible=1;marginBottom=0;swimlaneFillColor=#ffffff;rounded=0;shadow=0;comic=0;labelBackgroundColor=none;strokeWidth=1;fontFamily=Verdana;fontSize=10;align=center;" parent="1" vertex="1">
          <mxGeometry x="445" y="500" width="100" height="66" as="geometry" />
        </mxCell>
        <mxCell id="TaihLs68Lln45VLy-CV8-55" value="Resize()" style="text;html=1;strokeColor=none;fillColor=none;align=center;verticalAlign=top;spacingLeft=4;spacingRight=4;whiteSpace=wrap;overflow=hidden;rotatable=0;points=[[0,0.5],[1,0.5]];portConstraint=eastwest;" parent="TaihLs68Lln45VLy-CV8-54" vertex="1">
          <mxGeometry y="40" width="100" height="26" as="geometry" />
        </mxCell>
        <mxCell id="TaihLs68Lln45VLy-CV8-58" value="&lt;i style=&quot;font-family: Helvetica; font-size: 12px;&quot;&gt;&amp;lt;&amp;lt;&lt;/i&gt;&lt;i style=&quot;font-family: Helvetica; font-size: 12px;&quot;&gt;Product&lt;/i&gt;&lt;i style=&quot;font-family: Helvetica; font-size: 12px;&quot;&gt;&amp;gt;&amp;gt;&lt;/i&gt;&lt;br style=&quot;font-family: Helvetica; font-size: 12px;&quot;&gt;&lt;b style=&quot;font-family: Helvetica; font-size: 12px;&quot;&gt;PDFImage&lt;/b&gt;" style="swimlane;html=1;fontStyle=0;childLayout=stackLayout;horizontal=1;startSize=40;fillColor=none;horizontalStack=0;resizeParent=1;resizeLast=0;collapsible=1;marginBottom=0;swimlaneFillColor=#ffffff;rounded=0;shadow=0;comic=0;labelBackgroundColor=none;strokeWidth=1;fontFamily=Verdana;fontSize=10;align=center;" parent="1" vertex="1">
          <mxGeometry x="330" y="500" width="100" height="66" as="geometry" />
        </mxCell>
        <mxCell id="TaihLs68Lln45VLy-CV8-60" value="Resize()" style="text;html=1;strokeColor=none;fillColor=none;align=center;verticalAlign=top;spacingLeft=4;spacingRight=4;whiteSpace=wrap;overflow=hidden;rotatable=0;points=[[0,0.5],[1,0.5]];portConstraint=eastwest;" parent="TaihLs68Lln45VLy-CV8-58" vertex="1">
          <mxGeometry y="40" width="100" height="26" as="geometry" />
        </mxCell>
        <mxCell id="TaihLs68Lln45VLy-CV8-77" style="edgeStyle=orthogonalEdgeStyle;rounded=0;orthogonalLoop=1;jettySize=auto;html=1;entryX=0;entryY=0.5;entryDx=0;entryDy=0;dashed=1;strokeWidth=2;endArrow=block;endFill=0;endSize=12;" parent="1" source="TaihLs68Lln45VLy-CV8-67" target="17acba5748e5396b-21" edge="1">
          <mxGeometry relative="1" as="geometry" />
        </mxCell>
        <mxCell id="TaihLs68Lln45VLy-CV8-67" value="&lt;i style=&quot;font-family: Helvetica; font-size: 12px;&quot;&gt;&amp;lt;&amp;lt;ConcreteFactory&amp;gt;&amp;gt;&lt;/i&gt;&lt;br style=&quot;font-family: Helvetica; font-size: 12px;&quot;&gt;&lt;b style=&quot;font-family: Helvetica; font-size: 12px;&quot;&gt;WordFactory&lt;/b&gt;" style="swimlane;html=1;fontStyle=0;childLayout=stackLayout;horizontal=1;startSize=40;fillColor=none;horizontalStack=0;resizeParent=1;resizeLast=0;collapsible=1;marginBottom=0;swimlaneFillColor=#ffffff;rounded=0;shadow=0;comic=0;labelBackgroundColor=none;strokeWidth=1;fontFamily=Verdana;fontSize=10;align=center;" parent="1" vertex="1">
          <mxGeometry x="80" y="50" width="160" height="118" as="geometry" />
        </mxCell>
        <mxCell id="TaihLs68Lln45VLy-CV8-68" value="CreateDocument()" style="text;html=1;strokeColor=none;fillColor=none;align=center;verticalAlign=top;spacingLeft=4;spacingRight=4;whiteSpace=wrap;overflow=hidden;rotatable=0;points=[[0,0.5],[1,0.5]];portConstraint=eastwest;" parent="TaihLs68Lln45VLy-CV8-67" vertex="1">
          <mxGeometry y="40" width="160" height="26" as="geometry" />
        </mxCell>
        <mxCell id="TaihLs68Lln45VLy-CV8-69" value="CreateText()" style="text;html=1;strokeColor=none;fillColor=none;align=center;verticalAlign=top;spacingLeft=4;spacingRight=4;whiteSpace=wrap;overflow=hidden;rotatable=0;points=[[0,0.5],[1,0.5]];portConstraint=eastwest;" parent="TaihLs68Lln45VLy-CV8-67" vertex="1">
          <mxGeometry y="66" width="160" height="26" as="geometry" />
        </mxCell>
        <mxCell id="TaihLs68Lln45VLy-CV8-70" value="CreateImage()" style="text;html=1;strokeColor=none;fillColor=none;align=center;verticalAlign=top;spacingLeft=4;spacingRight=4;whiteSpace=wrap;overflow=hidden;rotatable=0;points=[[0,0.5],[1,0.5]];portConstraint=eastwest;" parent="TaihLs68Lln45VLy-CV8-67" vertex="1">
          <mxGeometry y="92" width="160" height="26" as="geometry" />
        </mxCell>
        <mxCell id="TaihLs68Lln45VLy-CV8-71" value="&lt;i style=&quot;font-family: Helvetica; font-size: 12px;&quot;&gt;&amp;lt;&amp;lt;ConcreteFactory&amp;gt;&amp;gt;&lt;/i&gt;&lt;br style=&quot;font-family: Helvetica; font-size: 12px;&quot;&gt;&lt;b style=&quot;font-family: Helvetica; font-size: 12px;&quot;&gt;PDFFactory&lt;/b&gt;" style="swimlane;html=1;fontStyle=0;childLayout=stackLayout;horizontal=1;startSize=40;fillColor=none;horizontalStack=0;resizeParent=1;resizeLast=0;collapsible=1;marginBottom=0;swimlaneFillColor=#ffffff;rounded=0;shadow=0;comic=0;labelBackgroundColor=none;strokeWidth=1;fontFamily=Verdana;fontSize=10;align=center;" parent="1" vertex="1">
          <mxGeometry x="80" y="180" width="160" height="118" as="geometry" />
        </mxCell>
        <mxCell id="TaihLs68Lln45VLy-CV8-72" value="CreateDocument()" style="text;html=1;strokeColor=none;fillColor=none;align=center;verticalAlign=top;spacingLeft=4;spacingRight=4;whiteSpace=wrap;overflow=hidden;rotatable=0;points=[[0,0.5],[1,0.5]];portConstraint=eastwest;" parent="TaihLs68Lln45VLy-CV8-71" vertex="1">
          <mxGeometry y="40" width="160" height="26" as="geometry" />
        </mxCell>
        <mxCell id="TaihLs68Lln45VLy-CV8-73" value="CreateText()" style="text;html=1;strokeColor=none;fillColor=none;align=center;verticalAlign=top;spacingLeft=4;spacingRight=4;whiteSpace=wrap;overflow=hidden;rotatable=0;points=[[0,0.5],[1,0.5]];portConstraint=eastwest;" parent="TaihLs68Lln45VLy-CV8-71" vertex="1">
          <mxGeometry y="66" width="160" height="26" as="geometry" />
        </mxCell>
        <mxCell id="TaihLs68Lln45VLy-CV8-74" value="CreateImage()" style="text;html=1;strokeColor=none;fillColor=none;align=center;verticalAlign=top;spacingLeft=4;spacingRight=4;whiteSpace=wrap;overflow=hidden;rotatable=0;points=[[0,0.5],[1,0.5]];portConstraint=eastwest;" parent="TaihLs68Lln45VLy-CV8-71" vertex="1">
          <mxGeometry y="92" width="160" height="26" as="geometry" />
        </mxCell>
        <mxCell id="TaihLs68Lln45VLy-CV8-78" style="edgeStyle=orthogonalEdgeStyle;rounded=0;orthogonalLoop=1;jettySize=auto;html=1;entryX=0;entryY=0.5;entryDx=0;entryDy=0;dashed=1;strokeWidth=2;endArrow=block;endFill=0;endSize=12;exitX=1;exitY=0.5;exitDx=0;exitDy=0;" parent="1" source="TaihLs68Lln45VLy-CV8-72" target="17acba5748e5396b-21" edge="1">
          <mxGeometry relative="1" as="geometry">
            <mxPoint x="310" y="160" as="sourcePoint" />
            <mxPoint x="420" y="224" as="targetPoint" />
          </mxGeometry>
        </mxCell>
        <mxCell id="TaihLs68Lln45VLy-CV8-93" style="edgeStyle=orthogonalEdgeStyle;rounded=0;orthogonalLoop=1;jettySize=auto;html=1;startArrow=open;startFill=0;endArrow=none;dashed=1;strokeWidth=2;endSize=6;startSize=12;" parent="1" source="TaihLs68Lln45VLy-CV8-58" edge="1">
          <mxGeometry relative="1" as="geometry">
            <mxPoint x="390" y="1035" as="sourcePoint" />
            <mxPoint x="160" y="650" as="targetPoint" />
            <Array as="points">
              <mxPoint x="380" y="650" />
              <mxPoint x="160" y="650" />
            </Array>
          </mxGeometry>
        </mxCell>
        <mxCell id="TaihLs68Lln45VLy-CV8-94" style="edgeStyle=orthogonalEdgeStyle;rounded=0;orthogonalLoop=1;jettySize=auto;html=1;startArrow=open;startFill=0;endArrow=none;dashed=1;strokeWidth=2;endSize=6;startSize=12;" parent="1" source="TaihLs68Lln45VLy-CV8-52" edge="1">
          <mxGeometry relative="1" as="geometry">
            <mxPoint x="600" y="630" as="sourcePoint" />
            <mxPoint x="380" y="650" as="targetPoint" />
            <Array as="points">
              <mxPoint x="615" y="650" />
              <mxPoint x="380" y="650" />
            </Array>
          </mxGeometry>
        </mxCell>
        <mxCell id="TaihLs68Lln45VLy-CV8-95" style="edgeStyle=orthogonalEdgeStyle;rounded=0;orthogonalLoop=1;jettySize=auto;html=1;endArrow=open;endFill=0;endSize=12;strokeWidth=2;dashed=1;jumpStyle=arc;jumpSize=12;" parent="1" source="TaihLs68Lln45VLy-CV8-68" target="GaqhjHV3RiaPSJneHQQe-3" edge="1">
          <mxGeometry relative="1" as="geometry">
            <Array as="points">
              <mxPoint x="40" y="103" />
              <mxPoint x="40" y="680" />
              <mxPoint x="270" y="680" />
            </Array>
          </mxGeometry>
        </mxCell>
        <mxCell id="TaihLs68Lln45VLy-CV8-96" style="edgeStyle=orthogonalEdgeStyle;rounded=0;orthogonalLoop=1;jettySize=auto;html=1;endArrow=open;endFill=0;endSize=12;strokeWidth=2;dashed=1;jumpStyle=arc;jumpSize=12;entryX=0.51;entryY=1.115;entryDx=0;entryDy=0;entryPerimeter=0;" parent="1" target="TaihLs68Lln45VLy-CV8-55" edge="1">
          <mxGeometry relative="1" as="geometry">
            <mxPoint x="270" y="680" as="sourcePoint" />
            <mxPoint x="495" y="592" as="targetPoint" />
            <Array as="points">
              <mxPoint x="495" y="680" />
            </Array>
          </mxGeometry>
        </mxCell>
        <mxCell id="TaihLs68Lln45VLy-CV8-97" style="edgeStyle=orthogonalEdgeStyle;rounded=0;orthogonalLoop=1;jettySize=auto;html=1;endArrow=open;endFill=0;endSize=12;strokeWidth=2;dashed=1;jumpStyle=arc;jumpSize=12;" parent="1" target="TaihLs68Lln45VLy-CV8-48" edge="1">
          <mxGeometry relative="1" as="geometry">
            <mxPoint x="490" y="680" as="sourcePoint" />
            <mxPoint x="675" y="670" as="targetPoint" />
            <Array as="points">
              <mxPoint x="500" y="680" />
              <mxPoint x="735" y="680" />
            </Array>
          </mxGeometry>
        </mxCell>
        <mxCell id="ym61BzFn1MVA1LRBroUL-1" value="" style="group" vertex="1" connectable="0" parent="1">
          <mxGeometry x="560" y="12" width="270" height="98" as="geometry" />
        </mxCell>
        <mxCell id="GaqhjHV3RiaPSJneHQQe-4" style="edgeStyle=orthogonalEdgeStyle;rounded=0;orthogonalLoop=1;jettySize=auto;html=1;entryX=0;entryY=0.5;entryDx=0;entryDy=0;dashed=1;strokeWidth=2;endArrow=block;endFill=0;endSize=12;" parent="ym61BzFn1MVA1LRBroUL-1" edge="1">
          <mxGeometry relative="1" as="geometry">
            <mxPoint x="180" y="57" as="sourcePoint" />
            <mxPoint x="240" y="57" as="targetPoint" />
            <Array as="points">
              <mxPoint x="190" y="57" />
              <mxPoint x="190" y="57" />
            </Array>
          </mxGeometry>
        </mxCell>
        <mxCell id="GaqhjHV3RiaPSJneHQQe-5" style="edgeStyle=orthogonalEdgeStyle;rounded=0;orthogonalLoop=1;jettySize=auto;html=1;endArrow=none;startFill=0;startArrow=diamond;startSize=12;" parent="ym61BzFn1MVA1LRBroUL-1" edge="1">
          <mxGeometry relative="1" as="geometry">
            <Array as="points">
              <mxPoint x="225" y="33" />
              <mxPoint x="60" y="33" />
            </Array>
            <mxPoint x="240" y="33" as="sourcePoint" />
            <mxPoint x="180" y="33" as="targetPoint" />
          </mxGeometry>
        </mxCell>
        <mxCell id="GaqhjHV3RiaPSJneHQQe-6" style="edgeStyle=orthogonalEdgeStyle;rounded=0;orthogonalLoop=1;jettySize=auto;html=1;startArrow=open;startFill=0;endArrow=none;dashed=1;strokeWidth=2;endSize=6;startSize=12;" parent="ym61BzFn1MVA1LRBroUL-1" edge="1">
          <mxGeometry relative="1" as="geometry">
            <mxPoint x="240" y="83" as="sourcePoint" />
            <mxPoint x="180" y="83" as="targetPoint" />
            <Array as="points">
              <mxPoint x="235" y="83" />
              <mxPoint y="83" />
            </Array>
          </mxGeometry>
        </mxCell>
        <mxCell id="GaqhjHV3RiaPSJneHQQe-7" value="Aggregation" style="text;html=1;align=center;verticalAlign=middle;resizable=0;points=[];autosize=1;strokeColor=none;fillColor=none;" parent="ym61BzFn1MVA1LRBroUL-1" vertex="1">
          <mxGeometry x="94" y="18" width="90" height="30" as="geometry" />
        </mxCell>
        <mxCell id="GaqhjHV3RiaPSJneHQQe-8" value="Inheritance" style="text;html=1;align=center;verticalAlign=middle;resizable=0;points=[];autosize=1;strokeColor=none;fillColor=none;" parent="ym61BzFn1MVA1LRBroUL-1" vertex="1">
          <mxGeometry x="99" y="42" width="80" height="30" as="geometry" />
        </mxCell>
        <mxCell id="GaqhjHV3RiaPSJneHQQe-9" value="Association" style="text;html=1;align=center;verticalAlign=middle;resizable=0;points=[];autosize=1;strokeColor=none;fillColor=none;" parent="ym61BzFn1MVA1LRBroUL-1" vertex="1">
          <mxGeometry x="99" y="67" width="80" height="30" as="geometry" />
        </mxCell>
        <mxCell id="GaqhjHV3RiaPSJneHQQe-11" value="Key" style="shape=umlFrame;whiteSpace=wrap;html=1;rounded=0;shadow=0;comic=0;labelBackgroundColor=none;strokeWidth=1;fontFamily=Verdana;fontSize=10;align=center;width=170;height=20;flipH=1;" parent="ym61BzFn1MVA1LRBroUL-1" vertex="1">
          <mxGeometry x="100" width="170" height="98" as="geometry" />
        </mxCell>
      </root>
    </mxGraphModel>
  </diagram>
</mxfile>
